
    <svg
        width="1200"
        height="420"
        viewBox="0 0 1200 420"
        fill="none"
        xmlns="http://www.w3.org/2000/svg">
            <rect xmlns="http://www.w3.org/2000/svg" data-testid="card_bg" id="cardBg"
            x="0" y="0" rx="0" height="100%" stroke="#E4E2E2" fill-opacity="1"
            width="100%" fill="#0D1117" stroke-opacity="1" style="stroke:#0000; stroke-width:1;"/>

            <style>
                body {
                    font: 600 18px 'Segoe UI', Ubuntu, Sans-Serif;
                }
                .header {
                    font: 600 20px 'Segoe UI', Ubuntu, Sans-Serif;
                    text-align: center;
                    color: #58A6FF;
                    margin-top: 20px;
                }
                svg {
                    font: 600 18px 'Segoe UI', Ubuntu, Sans-Serif;
                    user-select: none;
                }
                
    .ct-label {
      fill: #58A6FF;
      color: #58A6FF;
      font-size: .75rem;
      line-height: 1;
    }

    .ct-grid-background,
    .ct-line {
      fill: none;
    }

    .ct-chart-bar .ct-label,
    .ct-chart-line .ct-label {
      display: block;
      display: -webkit-box;
      display: -moz-box;
      display: -ms-flexbox;
      display: -webkit-flex;
      display: flex;
    }

    .ct-label.ct-horizontal.ct-start {
      -webkit-box-align: flex-end;
      -webkit-align-items: flex-end;
      -ms-flex-align: flex-end;
      align-items: flex-end;
      -webkit-box-pack: flex-start;
      -webkit-justify-content: flex-start;
      -ms-flex-pack: flex-start;
      justify-content: flex-start;
      text-align: left;
      text-anchor: start;
    }

    .ct-label.ct-horizontal.ct-end {
      -webkit-box-align: flex-start;
      -webkit-align-items: flex-start;
      -ms-flex-align: flex-start;
      align-items: flex-start;
      -webkit-box-pack: flex-start;
      -webkit-justify-content: flex-start;
      -ms-flex-pack: flex-start;
      justify-content: flex-start;
      text-align: left;
      text-anchor: start;
    }

    .ct-label.ct-vertical.ct-start {
      -webkit-box-align: flex-end;
      -webkit-align-items: flex-end;
      -ms-flex-align: flex-end;
      align-items: flex-end;
      -webkit-box-pack: flex-end;
      -webkit-justify-content: flex-end;
      -ms-flex-pack: flex-end;
      justify-content: flex-end;
      text-align: right;
      text-anchor: end;
    }

    .ct-label.ct-vertical.ct-end {
      -webkit-box-align: flex-end;
      -webkit-align-items: flex-end;
      -ms-flex-align: flex-end;
      align-items: flex-end;
      -webkit-box-pack: flex-start;
      -webkit-justify-content: flex-start;
      -ms-flex-pack: flex-start;
      justify-content: flex-start;
      text-align: left;
      text-anchor: start;
    }

    .ct-grid {
      stroke: #58A6FF;
      stroke-width: 1px;
      stroke-opacity: 0.3;
      stroke-dasharray: 2px;
    }

    .ct-point {
      stroke-width: 10px;
      stroke-linecap: round;
      stroke: #58A6FF;
      animation: blink 1s ease-in-out forwards;
    }

    .ct-line {
      stroke-width: 4px;
      stroke-dasharray: 5000;
      stroke-dashoffset: 5000;
      stroke: #1F6FEB;
      animation: dash 5s ease-in-out forwards;
    }

    .ct-area {
      stroke: none;
      fill-opacity: 0.1;
    }

    .ct-series-a .ct-area,
    .ct-series-a .ct-slice-pie {
      fill: #1F6FEB;
    }

    .ct-label .ct-horizontal {
      transform: rotate(-90deg)
    }
    
                
        @keyframes blink {
            from {
                opacity: 0;
                transform:translateX(-20px); 
            }
            to {
                opacity:1;
                transform: translateX(0);
            }
        }
    
                
        @keyframes dash {
            to {
                stroke-dashoffset: 0;
            }
        }
    
    
            </style>

            <foreignObject x="0" y="0" width="1200" height="50">
                <h1 xmlns="http://www.w3.org/1999/xhtml" class="header">
                    Akhilesh Yadav's Contribution Graph
                </h1>
            </foreignObject>
            <svg xmlns:ct="http://gionkunz.github.com/chartist-js/ct" width="1200" height="420" class="ct-chart-line"><g class="ct-grids"><line x1="90" x2="90" y1="80" y2="350" class="ct-grid ct-horizontal"></line><line x1="121.17647058823529" x2="121.17647058823529" y1="80" y2="350" class="ct-grid ct-horizontal"></line><line x1="152.35294117647058" x2="152.35294117647058" y1="80" y2="350" class="ct-grid ct-horizontal"></line><line x1="183.52941176470588" x2="183.52941176470588" y1="80" y2="350" class="ct-grid ct-horizontal"></line><line x1="214.70588235294116" x2="214.70588235294116" y1="80" y2="350" class="ct-grid ct-horizontal"></line><line x1="245.88235294117646" x2="245.88235294117646" y1="80" y2="350" class="ct-grid ct-horizontal"></line><line x1="277.05882352941177" x2="277.05882352941177" y1="80" y2="350" class="ct-grid ct-horizontal"></line><line x1="308.2352941176471" x2="308.2352941176471" y1="80" y2="350" class="ct-grid ct-horizontal"></line><line x1="339.4117647058823" x2="339.4117647058823" y1="80" y2="350" class="ct-grid ct-horizontal"></line><line x1="370.5882352941176" x2="370.5882352941176" y1="80" y2="350" class="ct-grid ct-horizontal"></line><line x1="401.7647058823529" x2="401.7647058823529" y1="80" y2="350" class="ct-grid ct-horizontal"></line><line x1="432.94117647058823" x2="432.94117647058823" y1="80" y2="350" class="ct-grid ct-horizontal"></line><line x1="464.11764705882354" x2="464.11764705882354" y1="80" y2="350" class="ct-grid ct-horizontal"></line><line x1="495.29411764705884" x2="495.29411764705884" y1="80" y2="350" class="ct-grid ct-horizontal"></line><line x1="526.4705882352941" x2="526.4705882352941" y1="80" y2="350" class="ct-grid ct-horizontal"></line><line x1="557.6470588235294" x2="557.6470588235294" y1="80" y2="350" class="ct-grid ct-horizontal"></line><line x1="588.8235294117646" x2="588.8235294117646" y1="80" y2="350" class="ct-grid ct-horizontal"></line><line x1="620" x2="620" y1="80" y2="350" class="ct-grid ct-horizontal"></line><line x1="651.1764705882352" x2="651.1764705882352" y1="80" y2="350" class="ct-grid ct-horizontal"></line><line x1="682.3529411764706" x2="682.3529411764706" y1="80" y2="350" class="ct-grid ct-horizontal"></line><line x1="713.5294117647059" x2="713.5294117647059" y1="80" y2="350" class="ct-grid ct-horizontal"></line><line x1="744.7058823529412" x2="744.7058823529412" y1="80" y2="350" class="ct-grid ct-horizontal"></line><line x1="775.8823529411765" x2="775.8823529411765" y1="80" y2="350" class="ct-grid ct-horizontal"></line><line x1="807.0588235294117" x2="807.0588235294117" y1="80" y2="350" class="ct-grid ct-horizontal"></line><line x1="838.2352941176471" x2="838.2352941176471" y1="80" y2="350" class="ct-grid ct-horizontal"></line><line x1="869.4117647058823" x2="869.4117647058823" y1="80" y2="350" class="ct-grid ct-horizontal"></line><line x1="900.5882352941177" x2="900.5882352941177" y1="80" y2="350" class="ct-grid ct-horizontal"></line><line x1="931.7647058823529" x2="931.7647058823529" y1="80" y2="350" class="ct-grid ct-horizontal"></line><line x1="962.9411764705882" x2="962.9411764705882" y1="80" y2="350" class="ct-grid ct-horizontal"></line><line x1="994.1176470588235" x2="994.1176470588235" y1="80" y2="350" class="ct-grid ct-horizontal"></line><line x1="1025.2941176470588" x2="1025.2941176470588" y1="80" y2="350" class="ct-grid ct-horizontal"></line><line x1="1056.4705882352941" x2="1056.4705882352941" y1="80" y2="350" class="ct-grid ct-horizontal"></line><line x1="1087.6470588235293" x2="1087.6470588235293" y1="80" y2="350" class="ct-grid ct-horizontal"></line><line x1="1118.8235294117646" x2="1118.8235294117646" y1="80" y2="350" class="ct-grid ct-horizontal"></line><line x1="1150" x2="1150" y1="80" y2="350" class="ct-grid ct-horizontal"></line><line y1="350" y2="350" x1="90" x2="1150" class="ct-grid ct-vertical"></line><line y1="311.42857142857144" y2="311.42857142857144" x1="90" x2="1150" class="ct-grid ct-vertical"></line><line y1="272.8571428571429" y2="272.8571428571429" x1="90" x2="1150" class="ct-grid ct-vertical"></line><line y1="234.28571428571428" y2="234.28571428571428" x1="90" x2="1150" class="ct-grid ct-vertical"></line><line y1="195.71428571428572" y2="195.71428571428572" x1="90" x2="1150" class="ct-grid ct-vertical"></line><line y1="157.14285714285714" y2="157.14285714285714" x1="90" x2="1150" class="ct-grid ct-vertical"></line><line y1="118.57142857142858" y2="118.57142857142858" x1="90" x2="1150" class="ct-grid ct-vertical"></line><line y1="80" y2="80" x1="90" x2="1150" class="ct-grid ct-vertical"></line></g><g><g class="ct-series ct-series-a"><path d="M90,350L90,350C100.392,350,110.784,350,121.176,350C131.569,350,141.961,331.92,152.353,315.286C162.745,298.652,173.137,226.571,183.529,226.571C193.922,226.571,204.314,350,214.706,350C225.098,350,235.49,346.143,245.882,346.143C256.275,346.143,266.667,350,277.059,350C287.451,350,297.843,350,308.235,350C318.627,350,329.02,350,339.412,350C349.804,350,360.196,122.429,370.588,122.429C380.98,122.429,391.373,269.514,401.765,292.143C412.157,314.771,422.549,334.571,432.941,334.571C443.333,334.571,453.725,334.571,464.118,334.571C474.51,334.571,484.902,329.943,495.294,326.857C505.686,323.771,516.078,315.286,526.471,315.286C536.863,315.286,547.255,330.714,557.647,330.714C568.039,330.714,578.431,269,588.824,269C599.216,269,609.608,350,620,350C630.392,350,640.784,323.551,651.176,315.286C661.569,307.02,671.961,296,682.353,296C692.745,296,703.137,350,713.529,350C723.922,350,734.314,346.887,744.706,342.286C755.098,337.684,765.49,276.714,775.882,276.714C786.275,276.714,796.667,350,807.059,350C817.451,350,827.843,238.143,838.235,238.143C848.627,238.143,859.02,265.143,869.412,265.143C879.804,265.143,890.196,91.571,900.588,91.571C910.98,91.571,921.373,350,931.765,350C942.157,350,952.549,350,962.941,350C973.333,350,983.725,320,994.118,311.429C1004.51,302.857,1014.902,298.571,1025.294,292.143C1035.686,285.714,1046.078,272.857,1056.471,272.857C1066.863,272.857,1077.255,350,1087.647,350C1098.039,350,1108.431,338.429,1118.824,338.429C1129.216,338.429,1139.608,346.143,1150,350L1150,350Z" class="ct-area"></path><path d="M90,350C100.392,350,110.784,350,121.176,350C131.569,350,141.961,331.92,152.353,315.286C162.745,298.652,173.137,226.571,183.529,226.571C193.922,226.571,204.314,350,214.706,350C225.098,350,235.49,346.143,245.882,346.143C256.275,346.143,266.667,350,277.059,350C287.451,350,297.843,350,308.235,350C318.627,350,329.02,350,339.412,350C349.804,350,360.196,122.429,370.588,122.429C380.98,122.429,391.373,269.514,401.765,292.143C412.157,314.771,422.549,334.571,432.941,334.571C443.333,334.571,453.725,334.571,464.118,334.571C474.51,334.571,484.902,329.943,495.294,326.857C505.686,323.771,516.078,315.286,526.471,315.286C536.863,315.286,547.255,330.714,557.647,330.714C568.039,330.714,578.431,269,588.824,269C599.216,269,609.608,350,620,350C630.392,350,640.784,323.551,651.176,315.286C661.569,307.02,671.961,296,682.353,296C692.745,296,703.137,350,713.529,350C723.922,350,734.314,346.887,744.706,342.286C755.098,337.684,765.49,276.714,775.882,276.714C786.275,276.714,796.667,350,807.059,350C817.451,350,827.843,238.143,838.235,238.143C848.627,238.143,859.02,265.143,869.412,265.143C879.804,265.143,890.196,91.571,900.588,91.571C910.98,91.571,921.373,350,931.765,350C942.157,350,952.549,350,962.941,350C973.333,350,983.725,320,994.118,311.429C1004.51,302.857,1014.902,298.571,1025.294,292.143C1035.686,285.714,1046.078,272.857,1056.471,272.857C1066.863,272.857,1077.255,350,1087.647,350C1098.039,350,1108.431,338.429,1118.824,338.429C1129.216,338.429,1139.608,346.143,1150,350" class="ct-line"></path><line x1="90" y1="350" x2="90.01" y2="350" class="ct-point" ct:value="0"></line><line x1="121.17647058823529" y1="350" x2="121.1864705882353" y2="350" class="ct-point" ct:value="0"></line><line x1="152.35294117647058" y1="315.2857142857143" x2="152.36294117647057" y2="315.2857142857143" class="ct-point" ct:value="9"></line><line x1="183.52941176470588" y1="226.57142857142856" x2="183.53941176470587" y2="226.57142857142856" class="ct-point" ct:value="32"></line><line x1="214.70588235294116" y1="350" x2="214.71588235294115" y2="350" class="ct-point" ct:value="0"></line><line x1="245.88235294117646" y1="346.14285714285717" x2="245.89235294117645" y2="346.14285714285717" class="ct-point" ct:value="1"></line><line x1="277.05882352941177" y1="350" x2="277.06882352941176" y2="350" class="ct-point" ct:value="0"></line><line x1="308.2352941176471" y1="350" x2="308.24529411764706" y2="350" class="ct-point" ct:value="0"></line><line x1="339.4117647058823" y1="350" x2="339.4217647058823" y2="350" class="ct-point" ct:value="0"></line><line x1="370.5882352941176" y1="122.42857142857142" x2="370.5982352941176" y2="122.42857142857142" class="ct-point" ct:value="59"></line><line x1="401.7647058823529" y1="292.14285714285717" x2="401.7747058823529" y2="292.14285714285717" class="ct-point" ct:value="15"></line><line x1="432.94117647058823" y1="334.57142857142856" x2="432.9511764705882" y2="334.57142857142856" class="ct-point" ct:value="4"></line><line x1="464.11764705882354" y1="334.57142857142856" x2="464.1276470588235" y2="334.57142857142856" class="ct-point" ct:value="4"></line><line x1="495.29411764705884" y1="326.85714285714283" x2="495.30411764705883" y2="326.85714285714283" class="ct-point" ct:value="6"></line><line x1="526.4705882352941" y1="315.2857142857143" x2="526.4805882352941" y2="315.2857142857143" class="ct-point" ct:value="9"></line><line x1="557.6470588235294" y1="330.7142857142857" x2="557.6570588235294" y2="330.7142857142857" class="ct-point" ct:value="5"></line><line x1="588.8235294117646" y1="269" x2="588.8335294117646" y2="269" class="ct-point" ct:value="21"></line><line x1="620" y1="350" x2="620.01" y2="350" class="ct-point" ct:value="0"></line><line x1="651.1764705882352" y1="315.2857142857143" x2="651.1864705882352" y2="315.2857142857143" class="ct-point" ct:value="9"></line><line x1="682.3529411764706" y1="296" x2="682.3629411764706" y2="296" class="ct-point" ct:value="14"></line><line x1="713.5294117647059" y1="350" x2="713.5394117647058" y2="350" class="ct-point" ct:value="0"></line><line x1="744.7058823529412" y1="342.2857142857143" x2="744.7158823529412" y2="342.2857142857143" class="ct-point" ct:value="2"></line><line x1="775.8823529411765" y1="276.7142857142857" x2="775.8923529411765" y2="276.7142857142857" class="ct-point" ct:value="19"></line><line x1="807.0588235294117" y1="350" x2="807.0688235294117" y2="350" class="ct-point" ct:value="0"></line><line x1="838.2352941176471" y1="238.14285714285714" x2="838.2452941176471" y2="238.14285714285714" class="ct-point" ct:value="29"></line><line x1="869.4117647058823" y1="265.1428571428571" x2="869.4217647058823" y2="265.1428571428571" class="ct-point" ct:value="22"></line><line x1="900.5882352941177" y1="91.57142857142856" x2="900.5982352941177" y2="91.57142857142856" class="ct-point" ct:value="67"></line><line x1="931.7647058823529" y1="350" x2="931.7747058823529" y2="350" class="ct-point" ct:value="0"></line><line x1="962.9411764705882" y1="350" x2="962.9511764705882" y2="350" class="ct-point" ct:value="0"></line><line x1="994.1176470588235" y1="311.42857142857144" x2="994.1276470588235" y2="311.42857142857144" class="ct-point" ct:value="10"></line><line x1="1025.2941176470588" y1="292.14285714285717" x2="1025.3041176470588" y2="292.14285714285717" class="ct-point" ct:value="15"></line><line x1="1056.4705882352941" y1="272.8571428571429" x2="1056.4805882352941" y2="272.8571428571429" class="ct-point" ct:value="20"></line><line x1="1087.6470588235293" y1="350" x2="1087.6570588235293" y2="350" class="ct-point" ct:value="0"></line><line x1="1118.8235294117646" y1="338.42857142857144" x2="1118.8335294117646" y2="338.42857142857144" class="ct-point" ct:value="3"></line><line x1="1150" y1="350" x2="1150.01" y2="350" class="ct-point" ct:value="0"></line></g></g><g class="ct-labels"><text x="85.5" y="370" width="31.176470588235293" height="40" class="ct-label ct-horizontal ct-end">30</text><text x="116.67647058823529" y="370" width="31.176470588235293" height="40" class="ct-label ct-horizontal ct-end">31</text><text x="147.85294117647058" y="370" width="31.176470588235297" height="40" class="ct-label ct-horizontal ct-end">1</text><text x="179.02941176470588" y="370" width="31.17647058823529" height="40" class="ct-label ct-horizontal ct-end">2</text><text x="210.20588235294116" y="370" width="31.17647058823529" height="40" class="ct-label ct-horizontal ct-end">3</text><text x="241.38235294117646" y="370" width="31.176470588235304" height="40" class="ct-label ct-horizontal ct-end">4</text><text x="272.55882352941177" y="370" width="31.176470588235276" height="40" class="ct-label ct-horizontal ct-end">5</text><text x="303.7352941176471" y="370" width="31.176470588235304" height="40" class="ct-label ct-horizontal ct-end">6</text><text x="334.9117647058823" y="370" width="31.176470588235276" height="40" class="ct-label ct-horizontal ct-end">7</text><text x="366.0882352941176" y="370" width="31.176470588235304" height="40" class="ct-label ct-horizontal ct-end">8</text><text x="397.2647058823529" y="370" width="31.176470588235304" height="40" class="ct-label ct-horizontal ct-end">9</text><text x="428.44117647058823" y="370" width="31.176470588235304" height="40" class="ct-label ct-horizontal ct-end">10</text><text x="459.61764705882354" y="370" width="31.176470588235304" height="40" class="ct-label ct-horizontal ct-end">11</text><text x="490.79411764705884" y="370" width="31.176470588235247" height="40" class="ct-label ct-horizontal ct-end">12</text><text x="521.9705882352941" y="370" width="31.176470588235304" height="40" class="ct-label ct-horizontal ct-end">13</text><text x="553.1470588235294" y="370" width="31.176470588235304" height="40" class="ct-label ct-horizontal ct-end">14</text><text x="584.3235294117646" y="370" width="31.176470588235304" height="40" class="ct-label ct-horizontal ct-end">15</text><text x="615.5" y="370" width="31.176470588235247" height="40" class="ct-label ct-horizontal ct-end">16</text><text x="646.6764705882352" y="370" width="31.17647058823536" height="40" class="ct-label ct-horizontal ct-end">17</text><text x="677.8529411764706" y="370" width="31.176470588235247" height="40" class="ct-label ct-horizontal ct-end">18</text><text x="709.0294117647059" y="370" width="31.17647058823536" height="40" class="ct-label ct-horizontal ct-end">19</text><text x="740.2058823529412" y="370" width="31.176470588235247" height="40" class="ct-label ct-horizontal ct-end">20</text><text x="771.3823529411765" y="370" width="31.176470588235247" height="40" class="ct-label ct-horizontal ct-end">21</text><text x="802.5588235294117" y="370" width="31.17647058823536" height="40" class="ct-label ct-horizontal ct-end">22</text><text x="833.7352941176471" y="370" width="31.176470588235247" height="40" class="ct-label ct-horizontal ct-end">23</text><text x="864.9117647058823" y="370" width="31.17647058823536" height="40" class="ct-label ct-horizontal ct-end">24</text><text x="896.0882352941177" y="370" width="31.176470588235247" height="40" class="ct-label ct-horizontal ct-end">25</text><text x="927.2647058823529" y="370" width="31.176470588235247" height="40" class="ct-label ct-horizontal ct-end">26</text><text x="958.4411764705882" y="370" width="31.17647058823536" height="40" class="ct-label ct-horizontal ct-end">27</text><text x="989.6176470588235" y="370" width="31.176470588235247" height="40" class="ct-label ct-horizontal ct-end">28</text><text x="1020.7941176470588" y="370" width="31.17647058823536" height="40" class="ct-label ct-horizontal ct-end">29</text><text x="1051.9705882352941" y="370" width="31.176470588235247" height="40" class="ct-label ct-horizontal ct-end">30</text><text x="1083.1470588235293" y="370" width="31.176470588235247" height="40" class="ct-label ct-horizontal ct-end">1</text><text x="1114.3235294117646" y="370" width="31.17647058823536" height="40" class="ct-label ct-horizontal ct-end">2</text><text x="1145.5" y="370" width="30" height="40" class="ct-label ct-horizontal ct-end">3</text><text y="354.5" x="80" height="38.57142857142857" width="60" class="ct-label ct-vertical ct-start">0</text><text y="315.92857142857144" x="80" height="38.57142857142857" width="60" class="ct-label ct-vertical ct-start">10</text><text y="277.3571428571429" x="80" height="38.57142857142857" width="60" class="ct-label ct-vertical ct-start">20</text><text y="238.78571428571428" x="80" height="38.57142857142857" width="60" class="ct-label ct-vertical ct-start">30</text><text y="200.21428571428572" x="80" height="38.571428571428584" width="60" class="ct-label ct-vertical ct-start">40</text><text y="161.64285714285714" x="80" height="38.571428571428555" width="60" class="ct-label ct-vertical ct-start">50</text><text y="123.07142857142858" x="80" height="38.571428571428584" width="60" class="ct-label ct-vertical ct-start">60</text><text y="84.5" x="80" height="30" width="60" class="ct-label ct-vertical ct-start">70</text></g><text class="ct-axis-title ct-label" x="620" y="400" dominant-baseline="text-after-edge" text-anchor="middle">Days</text><text class="ct-axis-title ct-label" x="20" y="215" transform="rotate(-90, 20, 215)" dominant-baseline="hanging" text-anchor="middle">Contributions</text></svg>
    </svg>
